<svg xmlns="http://www.w3.org/2000/svg" viewBox="0 0 160 160" width="160" height="160">
  <line x1="80" y1="68" x2="50" y2="44" stroke="#1C1C2E" stroke-width="1" opacity="0.22"/>
  <line x1="80" y1="68" x2="114" y2="50" stroke="#1C1C2E" stroke-width="1" opacity="0.22"/>
  <line x1="80" y1="68" x2="38" y2="90" stroke="#1C1C2E" stroke-width="0.8" opacity="0.16"/>
  <line x1="80" y1="68" x2="120" y2="94" stroke="#1C1C2E" stroke-width="0.8" opacity="0.16"/>
  <line x1="80" y1="68" x2="66" y2="112" stroke="#1C1C2E" stroke-width="0.7" opacity="0.14"/>
  <line x1="80" y1="68" x2="98" y2="108" stroke="#1C1C2E" stroke-width="0.7" opacity="0.14"/>
  <line x1="50" y1="44" x2="24" y2="62" stroke="#1C1C2E" stroke-width="0.5" opacity="0.12"/>
  <line x1="50" y1="44" x2="58" y2="20" stroke="#1C1C2E" stroke-width="0.5" opacity="0.1"/>
  <line x1="50" y1="44" x2="30" y2="28" stroke="#1C1C2E" stroke-width="0.5" opacity="0.1"/>
  <line x1="114" y1="50" x2="136" y2="36" stroke="#1C1C2E" stroke-width="0.5" opacity="0.1"/>
  <line x1="114" y1="50" x2="138" y2="68" stroke="#1C1C2E" stroke-width="0.5" opacity="0.12"/>
  <line x1="38" y1="90" x2="18" y2="104" stroke="#1C1C2E" stroke-width="0.4" opacity="0.09"/>
  <line x1="120" y1="94" x2="142" y2="100" stroke="#1C1C2E" stroke-width="0.4" opacity="0.09"/>
  <line x1="66" y1="112" x2="52" y2="132" stroke="#1C1C2E" stroke-width="0.4" opacity="0.08"/>
  <line x1="98" y1="108" x2="112" y2="128" stroke="#1C1C2E" stroke-width="0.4" opacity="0.08"/>
  <line x1="38" y1="90" x2="66" y2="112" stroke="#1C1C2E" stroke-width="0.5" opacity="0.08"/>
  <line x1="120" y1="94" x2="98" y2="108" stroke="#1C1C2E" stroke-width="0.5" opacity="0.08"/>
  <line x1="50" y1="44" x2="38" y2="90" stroke="#1C1C2E" stroke-width="0.4" opacity="0.07"/>
  <line x1="114" y1="50" x2="120" y2="94" stroke="#1C1C2E" stroke-width="0.4" opacity="0.07"/>
  <circle cx="80" cy="68" r="9" fill="#1C1C2E"/>
  <circle cx="50" cy="44" r="5.5" fill="#1C1C2E" opacity="0.72"/>
  <circle cx="114" cy="50" r="6" fill="#1C1C2E" opacity="0.75"/>
  <circle cx="38" cy="90" r="4" fill="#1C1C2E" opacity="0.52"/>
  <circle cx="120" cy="94" r="4.5" fill="#1C1C2E" opacity="0.55"/>
  <circle cx="66" cy="112" r="3.5" fill="#1C1C2E" opacity="0.42"/>
  <circle cx="98" cy="108" r="3.5" fill="#1C1C2E" opacity="0.42"/>
  <circle cx="24" cy="62" r="2.5" fill="#1C1C2E" opacity="0.3"/>
  <circle cx="58" cy="20" r="2" fill="#1C1C2E" opacity="0.25"/>
  <circle cx="30" cy="28" r="2" fill="#1C1C2E" opacity="0.22"/>
  <circle cx="136" cy="36" r="2" fill="#1C1C2E" opacity="0.25"/>
  <circle cx="138" cy="68" r="2.5" fill="#1C1C2E" opacity="0.3"/>
  <circle cx="18" cy="104" r="2" fill="#1C1C2E" opacity="0.2"/>
  <circle cx="142" cy="100" r="2" fill="#1C1C2E" opacity="0.2"/>
  <circle cx="52" cy="132" r="1.5" fill="#1C1C2E" opacity="0.16"/>
  <circle cx="112" cy="128" r="1.5" fill="#1C1C2E" opacity="0.16"/>
</svg>
